<?xml version="1.0" encoding="UTF-8"?> <svg xmlns="http://www.w3.org/2000/svg" xmlns:xlink="http://www.w3.org/1999/xlink" width="110" height="36" viewBox="0 0 110 36"><defs><style>.a{fill:none;}.b{clip-path:url(#a);}.c{fill:#fff;}</style><clipPath id="a"><rect class="a" width="110" height="36"></rect></clipPath></defs><g class="b"><path class="c" d="M751.034,468.912l-15.6-8.449-.037-.018a2.382,2.382,0,0,0-2.365-.016l-15.716,8.509a2.141,2.141,0,0,0-1.129,1.878v14.6a2.154,2.154,0,0,0,1.133,1.885l15.767,8.535a2.338,2.338,0,0,0,2.227,0l15.726-8.514a2.144,2.144,0,0,0,1.128-1.878V470.79A2.14,2.14,0,0,0,751.034,468.912Zm-2.107,4.544v9.329l-8.615-4.664ZM720.9,470.614l13.294-7.2,13.3,7.2-13.3,7.2Zm10.523,9.316,1.723.933a2.194,2.194,0,0,0,2.1,0l1.723-.933,10.523,5.7-13.3,7.2-13.294-7.2Zm-3.343-1.809-8.685,4.7v-9.4Z" transform="translate(-716.183 -460.124)"></path><g transform="translate(43.381 8.942)"><g transform="translate(0 0)"><path class="c" d="M908.49,501.572a1.839,1.839,0,1,1,3.677,0v4.866a4.76,4.76,0,0,1,4.04-2.107c3.024,0,5.9,2.373,5.9,6.706v.049c0,4.334-2.83,6.706-5.9,6.706a4.977,4.977,0,0,1-4.04-1.937v.024a1.839,1.839,0,0,1-3.677-.024Zm9.943,9.515v-.049a3.182,3.182,0,1,0-6.314,0v.049a3.182,3.182,0,1,0,6.314,0Z" transform="translate(-908.49 -499.732)"></path><g transform="translate(14.735 4.6)"><path class="c" d="M973.809,526.91v-.048a7.022,7.022,0,0,1,14.031-.049v.049a7.022,7.022,0,0,1-14.031.048Zm10.4,0v-.048a3.446,3.446,0,0,0-3.411-3.583,3.323,3.323,0,0,0-3.363,3.534v.049a3.446,3.446,0,0,0,3.411,3.583A3.323,3.323,0,0,0,984.211,526.91Z" transform="translate(-973.809 -520.107)"></path></g><g transform="translate(29.421 4.648)"><path class="c" d="M1039.615,532.258a1.466,1.466,0,0,1-.7-1.259,1.426,1.426,0,0,1,1.452-1.452,1.4,1.4,0,0,1,.726.194,6.825,6.825,0,0,0,3.508,1.162c1.065,0,1.548-.387,1.548-.968v-.049c0-.8-1.258-1.065-2.685-1.5-1.814-.533-3.871-1.38-3.871-3.9v-.049c0-2.639,2.129-4.116,4.742-4.116a9.111,9.111,0,0,1,4.016.993,1.5,1.5,0,0,1,.871,1.38,1.446,1.446,0,0,1-1.476,1.453,1.343,1.343,0,0,1-.678-.169,6.91,6.91,0,0,0-2.806-.823c-.895,0-1.355.387-1.355.9v.048c0,.726,1.234,1.065,2.637,1.55,1.815.6,3.919,1.477,3.919,3.85v.049c0,2.88-2.153,4.188-4.959,4.188A9.031,9.031,0,0,1,1039.615,532.258Z" transform="translate(-1038.913 -520.322)"></path></g><g transform="translate(40.778 1.38)"><path class="c" d="M1090.954,518.6v-6.15h-.121a1.574,1.574,0,0,1,0-3.147h.121v-1.622a1.839,1.839,0,1,1,3.677,0v1.622h1.621a1.574,1.574,0,0,1,0,3.147h-1.621V518c0,.848.363,1.259,1.185,1.259.121,0,.363-.024.436-.024a1.534,1.534,0,0,1,1.524,1.525,1.5,1.5,0,0,1-.944,1.38,5.421,5.421,0,0,1-2.1.363C1092.478,522.5,1090.954,521.606,1090.954,518.6Z" transform="translate(-1089.26 -505.844)"></path></g><g transform="translate(50.165 4.697)"><path class="c" d="M1130.876,529.931v-.049c0-2.833,2.153-4.14,5.226-4.14a9.2,9.2,0,0,1,3.169.533v-.218c0-1.525-.943-2.373-2.782-2.373a8.433,8.433,0,0,0-2.54.363,1.548,1.548,0,0,1-.532.1,1.5,1.5,0,0,1-1.524-1.5,1.525,1.525,0,0,1,.992-1.428,11.281,11.281,0,0,1,4.137-.678,5.983,5.983,0,0,1,4.379,1.453,5.66,5.66,0,0,1,1.4,4.14v5.908a1.766,1.766,0,0,1-1.79,1.767,1.647,1.647,0,0,1-1.766-1.525v-.024a4.982,4.982,0,0,1-3.918,1.646C1132.884,533.9,1130.876,532.5,1130.876,529.931Zm8.443-.848v-.653a5.7,5.7,0,0,0-2.347-.485c-1.573,0-2.54.63-2.54,1.791v.049c0,.993.822,1.574,2.008,1.574C1138.158,531.359,1139.319,530.415,1139.319,529.083Z" transform="translate(-1130.876 -520.537)"></path></g></g><g transform="translate(64.125 15.519)"><path class="c" d="M1195.255,569.69a1.219,1.219,0,0,1-1.242,1.228,1.223,1.223,0,1,1,0-2.445A1.218,1.218,0,0,1,1195.255,569.69Zm-2.183,0a.94.94,0,0,0,.947.969.929.929,0,0,0,.925-.963.937.937,0,1,0-1.872-.006Zm.748.637h-.28v-1.216a2.6,2.6,0,0,1,.465-.037.755.755,0,0,1,.422.089.342.342,0,0,1,.117.268.307.307,0,0,1-.251.28v.016a.353.353,0,0,1,.223.295.964.964,0,0,0,.089.3h-.3a1.055,1.055,0,0,1-.1-.3c-.023-.134-.1-.192-.251-.192h-.134Zm.008-.69h.134c.155,0,.28-.052.28-.177s-.08-.185-.26-.185a.588.588,0,0,0-.154.016Z" transform="translate(-1192.761 -568.474)"></path></g></g></g></svg> 