<?xml version="1.0" encoding="UTF-8"?> <svg xmlns="http://www.w3.org/2000/svg" xmlns:xlink="http://www.w3.org/1999/xlink" width="116" height="36" viewBox="0 0 116 36"><defs><style>.a{fill:none;}.b{clip-path:url(#a);}.c{fill:#fff;}</style><clipPath id="a"><rect class="a" width="116" height="36"></rect></clipPath></defs><g class="b" transform="translate(0 0)"><g transform="translate(0 6.542)"><path class="c" d="M-4629.611-1846.4a2.023,2.023,0,0,0,1.975-2.017,2.012,2.012,0,0,0-1.975-2,2.012,2.012,0,0,0-1.975,2A2.023,2.023,0,0,0-4629.611-1846.4Z" transform="translate(4632.543 1851.445)"></path><path class="c" d="M-4616.176-1846.4a2.023,2.023,0,0,0,1.975-2.017,2.037,2.037,0,0,0-1.975-2,2.012,2.012,0,0,0-1.975,2A2.023,2.023,0,0,0-4616.176-1846.4Z" transform="translate(4623.796 1851.445)"></path><path class="c" d="M-4583.234-1846.442a1.78,1.78,0,0,0-1.8,1.837v4.567a1.6,1.6,0,0,1-1.712,1.687,1.6,1.6,0,0,1-1.713-1.687v-2.141a1.78,1.78,0,0,0-1.8-1.838,1.78,1.78,0,0,0-1.8,1.838v2.141a1.6,1.6,0,0,1-1.712,1.687,1.6,1.6,0,0,1-1.713-1.687v-2.141a1.781,1.781,0,0,0-1.8-1.838,1.78,1.78,0,0,0-1.8,1.838v2.073a1.725,1.725,0,0,1-1.636,1.743,1.686,1.686,0,0,1-1.767-1.818,6.669,6.669,0,0,0-4.8-6.615,8.567,8.567,0,0,0-7.9,1.678v-6.393a1.78,1.78,0,0,0-1.8-1.837,1.78,1.78,0,0,0-1.8,1.837v13.149h-1.591a1.7,1.7,0,0,1-1.7-1.692c.011-4.028-2.381-6.875-5.847-7.021a6.184,6.184,0,0,0-6.387,6,5.936,5.936,0,0,0,2.272,4.956,5.815,5.815,0,0,0,5.134,1.187,1.765,1.765,0,0,0,1.316-1.269,1.889,1.889,0,0,0-.508-1.8,1.76,1.76,0,0,0-1.755-.423,2.077,2.077,0,0,1-1.936-.511,2.383,2.383,0,0,1-.922-1.977,2.565,2.565,0,0,1,2.667-2.524c2.126.11,2.36,2.37,2.36,3.354a5.468,5.468,0,0,0,4.281,5.361h13.657a5.4,5.4,0,0,0,3.6-1.21,5.341,5.341,0,0,0,1.725.942,4.722,4.722,0,0,0,.983.2l.651.067h0l.778-.079a3.561,3.561,0,0,0,.487-.079,5.392,5.392,0,0,0,2.213-1.139,5.494,5.494,0,0,0,3.426,1.244,5.583,5.583,0,0,0,3.623-1.19,5.669,5.669,0,0,0,5.441.918,5.045,5.045,0,0,0,3.4-4.992v-4.567A1.78,1.78,0,0,0-4583.234-1846.442Zm-24.528,8.08h-7.265c.649-3.6,3.211-5.185,5.5-5.118a3.27,3.27,0,0,1,3.422,3.321C-4606.12-1838.633-4606.553-1838.361-4607.763-1838.361Z" transform="translate(4634.332 1853.348)"></path><path class="c" d="M-4461.244-1833.751a1.78,1.78,0,0,0-1.8,1.837v3.344a1.673,1.673,0,0,1-1.7,1.72h-.685v-1.72c0-4.121-2.519-7-6.128-7a6.22,6.22,0,0,0-6.107,6.169,6.231,6.231,0,0,0,6.107,6.191h2.236a2,2,0,0,1-.74,1,2.234,2.234,0,0,1-1.869.063,1.8,1.8,0,0,0-1.8.383,1.9,1.9,0,0,0-.563,1.784,1.761,1.761,0,0,0,1.266,1.3,6.628,6.628,0,0,0,1.991.318,5.258,5.258,0,0,0,2.973-.885,6.057,6.057,0,0,0,2.467-3.956h1.881a5.469,5.469,0,0,0,4.282-5.361v-3.344A1.78,1.78,0,0,0-4461.244-1833.751Zm-7.792,6.9h-2.524a2.529,2.529,0,0,1-2.5-2.55,2.549,2.549,0,0,1,2.5-2.528c2.279,0,2.524,2.348,2.524,3.358Z" transform="translate(4532.332 1841.837)"></path><path class="c" d="M-4434.717-1800.047a2.012,2.012,0,0,0-1.975,1.995,2.024,2.024,0,0,0,1.975,2.018,2.023,2.023,0,0,0,1.975-2.018A2.011,2.011,0,0,0-4434.717-1800.047Z" transform="translate(4505.654 1818.836)"></path></g><path class="c" d="M-4369.5-1862.327l-15.459-8.447-.036-.014a2.319,2.319,0,0,0-2.343-.017l-15.566,8.507a2.144,2.144,0,0,0-1.119,1.877v14.608a2.153,2.153,0,0,0,1.121,1.883l15.619,8.535a2.332,2.332,0,0,0,1.1.282,2.329,2.329,0,0,0,1.1-.282l15.577-8.514a2.145,2.145,0,0,0,1.117-1.876v-14.66A2.145,2.145,0,0,0-4369.5-1862.327Zm-2.088,4.546v9.329l-8.535-4.667Zm-17.338,6.472,1.707.935a2.179,2.179,0,0,0,2.081,0l1.7-.935,10.427,5.7-13.172,7.2-13.171-7.2Zm-10.425-9.314,13.171-7.2,13.172,7.2-13.172,7.2Zm7.113,7.5-8.6,4.705v-9.406Z" transform="translate(4484.386 1871.114)"></path></g></svg> 